<svg width="30" height="32" viewBox="0 0 30 32" fill="none" xmlns="http://www.w3.org/2000/svg">
<path d="M22.7812 9V8.15625C22.7796 6.02853 21.9475 3.98549 20.462 2.46211C18.9766 0.938727 16.9552 0.0553315 14.8282 0H14.4218C12.2948 0.0553315 10.2734 0.938727 8.78797 2.46211C7.30254 3.98549 6.47041 6.02853 6.46875 8.15625V9H0.28125C0.206658 9 0.135121 9.02963 0.0823763 9.08238C0.0296317 9.13512 0 9.20666 0 9.28125V30.375C0 30.6734 0.118526 30.9595 0.329505 31.1705C0.540483 31.3815 0.826631 31.5 1.125 31.5H28.125C28.4234 31.5 28.7095 31.3815 28.9205 31.1705C29.1315 30.9595 29.25 30.6734 29.25 30.375V9.28125C29.25 9.20666 29.2204 9.13512 29.1676 9.08238C29.1149 9.02963 29.0433 9 28.9688 9H22.7812ZM19.9688 9H9.28125V8.22656C9.28125 5.28469 11.6304 2.84344 14.5723 2.8125C15.2782 2.80628 15.9785 2.93987 16.6326 3.20557C17.2866 3.47126 17.8817 3.8638 18.3833 4.36056C18.885 4.85732 19.2834 5.44847 19.5555 6.09992C19.8276 6.75138 19.968 7.45025 19.9688 8.15625V9Z" fill="white"/>
</svg>
