<svg width="46" height="58" viewBox="0 0 46 58" fill="none" xmlns="http://www.w3.org/2000/svg">
<path d="M31.6789 2.92893C29.8036 1.05357 27.26 0 24.6079 0H5.75C4.22501 0 2.76247 0.605802 1.68414 1.68414C0.605802 2.76247 0 4.22501 0 5.75V51.75C0 53.275 0.605802 54.7375 1.68414 55.8159C2.76247 56.8942 4.22501 57.5 5.75 57.5H40.25C41.775 57.5 43.2375 56.8942 44.3159 55.8159C45.3942 54.7375 46 53.275 46 51.75V21.3921C46 18.74 44.9464 16.1964 43.0711 14.3211L31.6789 2.92893ZM29.4177 40.25C28.255 40.25 27.3125 41.1925 27.3125 42.3552V44.5625C27.3125 46.9442 25.3817 48.875 23 48.875C20.6183 48.875 18.6875 46.9442 18.6875 44.5625V42.3552C18.6875 41.1925 17.745 40.25 16.5823 40.25C14.7068 40.25 13.7676 37.9824 15.0938 36.6562L19.6317 32.1183C21.492 30.258 24.508 30.258 26.3683 32.1183L30.9062 36.6562C32.2324 37.9824 31.2932 40.25 29.4177 40.25ZM30.5064 20.125C27.9485 20.125 25.875 18.0515 25.875 15.4936C25.875 11.3675 30.8636 9.30115 33.7812 12.2188C36.6989 15.1364 34.6325 20.125 30.5064 20.125Z" fill="#6A38F3"/>
</svg>
