<svg width="84" height="77" viewBox="0 0 84 77" fill="none" xmlns="http://www.w3.org/2000/svg">
<path d="M26.2502 8.75H43.7502L49.5835 14.5833H61.2502C62.0237 14.5833 62.7656 14.8906 63.3126 15.4376C63.8595 15.9846 64.1668 16.7265 64.1668 17.5V58.3333C64.1668 59.1069 63.8595 59.8488 63.3126 60.3957C62.7656 60.9427 62.0237 61.25 61.2502 61.25H8.75016C7.97661 61.25 7.23475 60.9427 6.68777 60.3957C6.14079 59.8488 5.8335 59.1069 5.8335 58.3333V17.5C5.8335 16.7265 6.14079 15.9846 6.68777 15.4376C7.23475 14.8906 7.97661 14.5833 8.75016 14.5833H20.4168L26.2502 8.75ZM35.0002 55.4167C39.6414 55.4167 44.0926 53.5729 47.3745 50.291C50.6564 47.0092 52.5002 42.558 52.5002 37.9167C52.5002 33.2754 50.6564 28.8242 47.3745 25.5423C44.0926 22.2604 39.6414 20.4167 35.0002 20.4167C30.3589 20.4167 25.9077 22.2604 22.6258 25.5423C19.3439 28.8242 17.5002 33.2754 17.5002 37.9167C17.5002 42.558 19.3439 47.0092 22.6258 50.291C25.9077 53.5729 30.3589 55.4167 35.0002 55.4167ZM35.0002 49.5833C31.906 49.5833 28.9385 48.3542 26.7506 46.1662C24.5627 43.9783 23.3335 41.0109 23.3335 37.9167C23.3335 34.8225 24.5627 31.855 26.7506 29.6671C28.9385 27.4792 31.906 26.25 35.0002 26.25C38.0944 26.25 41.0618 27.4792 43.2497 29.6671C45.4377 31.855 46.6668 34.8225 46.6668 37.9167C46.6668 41.0109 45.4377 43.9783 43.2497 46.1662C41.0618 48.3542 38.0944 49.5833 35.0002 49.5833Z" fill="#6A38F3"/>
<circle cx="64.5" cy="57.5" r="19.5" fill="white"/>
<path d="M54 57.5H74.5" stroke="#6A38F3" stroke-width="2"/>
<path d="M64.5 47V67.5" stroke="#6A38F3" stroke-width="2"/>
</svg>
