<svg width="25" height="25" viewBox="0 0 25 25" fill="none" xmlns="http://www.w3.org/2000/svg">
<path d="M4.08176 20.4073C3.52055 20.4073 3.0403 20.2077 2.64099 19.8084C2.24169 19.4091 2.0417 18.9285 2.04102 18.3666V6.12216C2.04102 5.56096 2.24101 5.0807 2.64099 4.6814C3.04098 4.28209 3.52123 4.0821 4.08176 4.08142H20.4077C20.9689 4.08142 21.4495 4.28141 21.8495 4.6814C22.2494 5.08138 22.4491 5.56164 22.4484 6.12216V18.3666C22.4484 18.9278 22.2488 19.4084 21.8495 19.8084C21.4502 20.2084 20.9696 20.408 20.4077 20.4073H4.08176ZM12.2447 13.2648L20.4077 8.1629V6.12216L12.2447 11.224L4.08176 6.12216V8.1629L12.2447 13.2648Z" fill="black" fill-opacity="0.6"/>
</svg>
