<svg width="29" height="28" viewBox="0 0 29 28" fill="none" xmlns="http://www.w3.org/2000/svg">
<path d="M5 0C3.67392 0 2.40215 0.526784 1.46447 1.46447C0.526784 2.40215 0 3.67392 0 5V22.5C0 23.8261 0.526784 25.0979 1.46447 26.0355C2.40215 26.9732 3.67392 27.5 5 27.5H17.5C17.8315 27.5 18.1495 27.3683 18.3839 27.1339C18.6183 26.8995 18.75 26.5815 18.75 26.25C18.75 25.9185 18.6183 25.6005 18.3839 25.3661C18.1495 25.1317 17.8315 25 17.5 25H5C4.33696 25 3.70107 24.7366 3.23223 24.2678C2.76339 23.7989 2.5 23.163 2.5 22.5V5C2.5 4.33696 2.76339 3.70107 3.23223 3.23223C3.70107 2.76339 4.33696 2.5 5 2.5H17.5C17.8315 2.5 18.1495 2.3683 18.3839 2.13388C18.6183 1.89946 18.75 1.58152 18.75 1.25C18.75 0.918479 18.6183 0.600537 18.3839 0.366116C18.1495 0.131696 17.8315 0 17.5 0H5ZM21.5088 5.99125C21.3934 5.87186 21.2555 5.77663 21.103 5.71112C20.9505 5.64561 20.7865 5.61113 20.6205 5.60969C20.4545 5.60824 20.2899 5.63987 20.1363 5.70272C19.9827 5.76557 19.8431 5.85839 19.7258 5.97576C19.6084 6.09312 19.5156 6.23269 19.4527 6.38631C19.3899 6.53993 19.3582 6.70453 19.3597 6.8705C19.3611 7.03648 19.3956 7.2005 19.4611 7.35301C19.5266 7.50551 19.6219 7.64344 19.7412 7.75875L24.4825 12.5H8.75C8.41848 12.5 8.10054 12.6317 7.86612 12.8661C7.6317 13.1005 7.5 13.4185 7.5 13.75C7.5 14.0815 7.6317 14.3995 7.86612 14.6339C8.10054 14.8683 8.41848 15 8.75 15H24.4825L19.7412 19.7412C19.5136 19.977 19.3876 20.2928 19.3904 20.6205C19.3933 20.9482 19.5247 21.2618 19.7565 21.4935C19.9882 21.7253 20.3018 21.8567 20.6295 21.8596C20.9572 21.8624 21.273 21.7364 21.5088 21.5088L28.3838 14.6337C28.6181 14.3993 28.7497 14.0815 28.7497 13.75C28.7497 13.4185 28.6181 13.1007 28.3838 12.8663L21.5088 5.99125Z" fill="white"/>
</svg>
