<svg width="46" height="58" viewBox="0 0 46 58" fill="none" xmlns="http://www.w3.org/2000/svg">
<path d="M28.75 0H5.75C4.22501 0 2.76247 0.605802 1.68414 1.68414C0.605802 2.76247 0 4.22501 0 5.75V51.75C0 53.275 0.605802 54.7375 1.68414 55.8159C2.76247 56.8942 4.22501 57.5 5.75 57.5H40.25C41.775 57.5 43.2375 56.8942 44.3159 55.8159C45.3942 54.7375 46 53.275 46 51.75V17.25L28.75 0ZM27.3125 40.25V48.875H18.6875V40.25H11.5L23 28.75L34.5 40.25H27.3125ZM25.875 20.125V4.3125L41.6875 20.125H25.875Z" fill="#6A38F3"/>
</svg>
