<svg width="183" height="183" viewBox="0 0 183 183" fill="none" xmlns="http://www.w3.org/2000/svg">
<path opacity="0.5" d="M128.862 90.8503C138.843 90.749 148.374 86.6871 155.36 79.5582C162.346 72.4293 166.213 62.8174 166.112 52.8369C166.011 42.8564 161.949 33.3249 154.82 26.3392C147.691 19.3536 138.079 15.486 128.098 15.5873C118.118 15.6886 108.586 19.7505 101.601 26.8794C94.6151 34.0083 90.7475 43.6202 90.8488 53.6007C90.9501 63.5812 95.012 73.1127 102.141 80.0983C109.27 87.084 118.882 90.9516 128.862 90.8503ZM138.946 34.9498C140.942 34.9295 142.864 35.703 144.29 37.1001C145.716 38.4973 146.528 40.4036 146.548 42.3997C146.569 44.3958 145.795 46.3182 144.398 47.7439C143.001 49.1697 141.095 49.9821 139.098 50.0024C137.102 50.0226 135.18 49.2491 133.754 47.852C132.328 46.4548 131.516 44.5485 131.496 42.5524C131.476 40.5563 132.249 38.6339 133.646 37.2082C135.043 35.7824 136.95 34.97 138.946 34.9498Z" fill="#6A38F3"/>
<path d="M24.0694 149.022L18.8097 154.389C18.0979 155.091 17.533 155.927 17.1479 156.85C16.7627 157.772 16.5651 158.761 16.5666 159.761C16.568 160.76 16.7685 161.749 17.1563 162.671C17.5442 163.592 18.1115 164.426 18.8254 165.126C19.5392 165.825 20.3852 166.376 21.314 166.745C22.2428 167.114 23.2358 167.294 24.235 167.275C25.2343 167.256 26.2198 167.039 27.134 166.635C28.0483 166.231 28.8729 165.649 29.5599 164.924L108.075 84.7989C103.818 82.0472 100.162 78.4642 97.3244 74.2647L55.6719 116.771L39.5542 100.977C38.1208 99.6209 36.212 98.8816 34.2388 98.9188C32.2656 98.956 30.3859 99.7666 29.0046 101.176C27.6234 102.586 26.851 104.482 26.8539 106.455C26.8567 108.429 27.6347 110.322 29.02 111.728L45.1377 127.522L34.6035 138.272L29.2361 133.02C27.8027 131.663 25.8939 130.924 23.9207 130.961C21.9475 130.998 20.0678 131.809 18.6865 133.218C17.3053 134.628 16.5329 136.524 16.5358 138.497C16.5386 140.471 17.3165 142.364 18.7019 143.77L24.0694 149.022Z" fill="#6A38F3"/>
</svg>
