<svg width="221" height="43" viewBox="0 0 221 43" fill="none" xmlns="http://www.w3.org/2000/svg">
<path d="M13.582 0C19.8459 5.10611e-05 27.2217 2.40082 27.2217 13.6992V15.4551H15.9824V14.7529C15.9824 13.5236 15.5132 12.1182 13.9326 12.1182H13.8164C12.8797 12.1182 12.1768 12.7039 12.1768 13.5234V13.6406C12.177 14.5772 13.5236 15.3384 16.6846 16.8604C21.1923 18.9678 27.2803 22.0705 27.3389 29.8564V29.9736C27.2802 38.1692 22.3046 42.4423 13.6992 42.501H13.5234C4.56658 42.4424 0 37.4082 0 27.5146V26.7539H11.2988V27.5146C11.2988 29.4465 12.5867 30.3828 13.4062 30.3828H13.5234C14.6355 30.3828 15.2792 29.7979 15.3379 28.9199V28.7441C15.3379 27.6904 13.8747 26.6949 10.4209 25.2314C5.85467 23.2996 0.234348 20.0214 0.175781 12.2939V12.1182C0.234361 3.62971 5.15192 0 13.4062 0H13.582ZM68.8291 0C81.8835 0.117239 81.9424 10.8303 81.9424 16.5674V25.9922C81.9424 31.7292 81.9421 42.5008 68.8291 42.501H68.1846C55.0716 42.5008 55.0713 31.7292 55.0713 25.9922V16.5674C55.0713 10.8303 55.1301 0.117238 68.1846 0H68.8291ZM97.4209 0C110.476 0 110.534 10.8303 110.534 16.5674V19.5527H99.4697V17.1533C99.4697 13.2896 99.2358 12.1182 97.5381 12.1182H97.0117C95.6068 12.1182 95.3721 13.4646 95.3721 17.2695V25.3486C95.3721 29.1538 95.5482 30.4414 97.0117 30.4414H97.5967C99.2358 30.4414 99.4697 29.271 99.4697 25.4658V22.5391H110.534V25.9922C110.534 31.7293 110.534 42.501 97.4209 42.501H96.8359C84.0739 42.501 84.0732 31.3195 84.0732 25.9922V16.5674C84.0732 11.2401 84.1325 0 96.8359 0H97.4209ZM207.333 0C220.388 0.0585406 220.446 10.8303 220.446 16.5674V25.9922C220.446 31.7293 220.446 42.501 207.333 42.501H184.736C171.623 42.501 171.623 31.7293 171.623 25.9922V16.5674C171.623 10.8303 171.682 0.0585406 184.736 0H207.333ZM53.8496 12.8789H46.708V41.7988H35.3506V12.8789H28.209V0.819336H53.8496V12.8789ZM124.141 8.89844C124.141 10.1863 123.731 13.172 123.497 14.46L123.965 14.5186C124.14 13.6405 124.726 11.0648 125.077 10.1865L128.414 0.819336H141.645L132.688 21.1924V21.251L142.113 41.7988H128.648L125.194 33.0176C124.667 31.7297 124.199 29.5634 123.965 28.3926L123.497 28.5098C123.731 29.6805 124.141 32.1392 124.141 33.7783V41.7988H112.9V0.819336H124.141V8.89844ZM169.303 41.7988H157.653V0.819336H169.303V41.7988ZM149.152 30.3242C152.313 30.3243 154.772 32.9589 154.772 35.9443C154.772 39.1055 152.313 41.5644 149.152 41.5645C146.05 41.5645 143.532 39.047 143.532 35.9443C143.532 32.8418 146.05 30.3242 149.152 30.3242ZM185.497 11.8838C183.214 11.9424 182.922 13.2306 182.922 17.2695V25.3486C182.922 29.3879 183.214 30.6171 185.497 30.6172H206.572C208.855 30.6172 209.148 29.388 209.148 25.3486V17.2695C209.148 13.1719 208.855 11.9423 206.572 11.8838H185.497ZM68.4189 12.1182C66.5457 12.1767 66.2529 13.4647 66.2529 17.5039V25.1143C66.2529 29.2121 66.5457 30.4414 68.4189 30.4414H68.5947C70.4094 30.3828 70.7607 29.1536 70.7607 25.1143V17.5039C70.7607 13.4062 70.468 12.1767 68.5947 12.1182H68.4189Z" fill="#F6F3E4"/>
<mask id="path-2-inside-1_1447_3995" fill="white">
<path d="M188.707 24.0011V0.23703H204.277V24.0011L196.082 14.1677L188.707 24.0011Z"/>
</mask>
<path d="M188.707 24.0011V0.23703H204.277V24.0011L196.082 14.1677L188.707 24.0011Z" fill="#F6F3E4"/>
<path d="M188.707 0.23703V-124.319H64.1507V0.23703H188.707ZM188.707 24.0011H64.1507V397.67L288.352 98.7349L188.707 24.0011ZM196.082 14.1677L291.769 -65.5714L190.938 -186.568L96.437 -60.5661L196.082 14.1677ZM204.277 24.0011L108.59 103.74L328.833 368.032V24.0011H204.277ZM204.277 0.23703H328.833V-124.319H204.277V0.23703ZM188.707 0.23703H64.1507V24.0011H188.707H313.263V0.23703H188.707ZM188.707 24.0011L288.352 98.7349L295.727 88.9015L196.082 14.1677L96.437 -60.5661L89.0619 -50.7327L188.707 24.0011ZM196.082 14.1677L100.395 93.9067L108.59 103.74L204.277 24.0011L299.963 -55.738L291.769 -65.5714L196.082 14.1677ZM204.277 24.0011H328.833V0.23703H204.277H79.7202V24.0011H204.277ZM204.277 0.23703V-124.319H188.707V0.23703V124.793H204.277V0.23703Z" fill="#C6E700" mask="url(#path-2-inside-1_1447_3995)"/>
</svg>
