<svg width="29" height="29" viewBox="0 0 29 29" fill="none" xmlns="http://www.w3.org/2000/svg">
<path fill-rule="evenodd" clip-rule="evenodd" d="M4.75 0C4.52965 7.39418e-06 4.31365 0.0613234 4.12616 0.177088C3.93867 0.292853 3.78709 0.458501 3.68837 0.6555L0.125875 7.7805C0.0431127 7.94563 1.23688e-05 8.12779 0 8.3125V15.4375C0 15.7524 0.125111 16.0545 0.347811 16.2772C0.57051 16.4999 0.872555 16.625 1.1875 16.625H2.375V28.5H4.75V16.625H8.3125V27.3125C8.3125 27.6274 8.43761 27.9295 8.66031 28.1522C8.88301 28.3749 9.18506 28.5 9.5 28.5H24.9375C25.2524 28.5 25.5545 28.3749 25.7772 28.1522C25.9999 27.9295 26.125 27.6274 26.125 27.3125V16.625H27.3125C27.6274 16.625 27.9295 16.4999 28.1522 16.2772C28.3749 16.0545 28.5 15.7524 28.5 15.4375V8.3125C28.5 8.12779 28.4569 7.94563 28.3741 7.7805L24.8116 0.6555C24.7129 0.458501 24.5613 0.292853 24.3738 0.177088C24.1863 0.0613234 23.9703 7.39418e-06 23.75 0H4.75ZM10.6875 26.125V16.625H23.75V26.125H10.6875ZM9.5 9.5H7.125V14.25H9.5V9.5ZM13.0625 9.5H15.4375V14.25H13.0625V9.5ZM21.375 9.5H19V14.25H21.375V9.5Z" fill="white"/>
</svg>
