<svg width="35" height="35" viewBox="0 0 35 35" fill="none" xmlns="http://www.w3.org/2000/svg">
<path d="M22.7395 4.41465C21.4092 2.97842 19.5512 2.1875 17.5004 2.1875C15.4387 2.1875 13.5745 2.97363 12.2504 4.40098C10.9119 5.84404 10.2598 7.80527 10.4129 9.92305C10.7164 14.1012 13.8958 17.5 17.5004 17.5C21.105 17.5 24.2789 14.1019 24.5872 9.92441C24.7424 7.82578 24.0861 5.86865 22.7395 4.41465ZM29.5316 32.8125H5.46914C5.15419 32.8166 4.84228 32.7504 4.55611 32.6188C4.26994 32.4872 4.01671 32.2935 3.81484 32.0517C3.37051 31.5205 3.19141 30.7952 3.32402 30.0617C3.90098 26.8611 5.70156 24.1726 8.53164 22.2852C11.0459 20.6097 14.2308 19.6875 17.5004 19.6875C20.77 19.6875 23.9549 20.6104 26.4691 22.2852C29.2992 24.1719 31.0998 26.8604 31.6768 30.061C31.8094 30.7945 31.6303 31.5198 31.1859 32.051C30.9841 32.2929 30.7309 32.4868 30.4448 32.6185C30.1586 32.7502 29.8467 32.8165 29.5316 32.8125Z" fill="#C6E700"/>
</svg>
